<svg xmlns="http://www.w3.org/2000/svg" viewBox="0 0 396.87 399.98"><g id="OBJECTS"><path d="M395.4,341.2V310.31l-29.13-16.82v33.06l-27.14,15.67V309.73L310.5,326.26l-27.64-15.95V280a2,2,0,0,0,1.46-1.89,2.09,2.09,0,0,0-.07-.51l26.5-15.3.25-.14V228.51L282.36,245,254.22,228.8,226.09,245l-27.64-15.95V197.18l28.64-16.53-28.64-16.54V131.05l-28.88,16.68-.25.14v31.91l-25.75-14.86a2.25,2.25,0,0,0,.07-.52,2,2,0,0,0-1.46-1.89V99.71l27.89-16.1.25-.14V49.83L141.43,66.5l-.25.15V99.14l-27.64,16L86.41,99.43l27.38-15.82.25-.14V49.83L85.16,66.5l-.25.15v64.4L59.16,116.19a2.25,2.25,0,0,0,.07-.52,2,2,0,0,0-1.46-1.89V82.9l-27.63-16L57.27,51.27l.5.29V51l.5-.28-.5-.29V17.92L31,2.47A1.7,1.7,0,0,0,31.1,2a2,2,0,1,0-2.46,1.89V34.16L0,50.7,28.14,66.94.75,82.75.5,82.9v32.48l-.5.29.5.29v32.49l27.62,16L.73,180.22l-.25.14V214l28.88-16.67.25-.15V165.26h0V132.21l26.24-15.16a1.9,1.9,0,0,0,.89.51v30.89l27.64,16L57,180.21l-.25.15v32.5L30.55,228a1.94,1.94,0,0,0-1.39-.58,2,2,0,0,0-.5,3.85V294L.73,310.16l-.25.14v33.64l0,0v31.93L28.66,392.1v.58l.5-.29.5.28v-.57L57.54,376l.25-.15V342.21L30.55,357.94a1.94,1.94,0,0,0-1.39-.58,2,2,0,0,0-1.4.58L2,343.06l26.66-15.39v0l28.63-16.54,28.64,16.54V294.63l27.86-16.09.25-.14V247.51a2,2,0,1,0-2.46-1.89,1.7,1.7,0,0,0,.08.51l-26.5,15.3-.25.15v31.89L57.79,277.82V213.41l27.62-15.94L114,214V180.94l26.25-15.16a1.9,1.9,0,0,0,.89.51v30.89l26.75,15.44a1.7,1.7,0,0,0,0,1L141.43,229l-.25.14V294L115.1,309.09a2,2,0,1,0-2.1,3v31.82l28.14-16.24v31.91l29.13,16.82V342.79l-27.61-15.94,27.15-15.68,26.25,15.16a2.09,2.09,0,0,0-.07.51,2,2,0,1,0,2.46-1.89v-62.8l27.64-15.95,27.13,15.67-27.38,15.81-.25.14v32.49l-.5.29.5.29V342.8L197.7,358.9l-.25.14v33.64L226.34,376l.25-.15V344l27.13,15.67v.58l.5-.29,28.64,16.53V345a2,2,0,0,0,.89-.51L310,359.62v33.05l28.13-16.24h0L367,359.76l.25-.14V327.71L393,342.57a1.82,1.82,0,0,0-.08.52,2,2,0,1,0,2.46-1.89ZM85.91,67.23,113,51.56V82.89L85.91,98.56ZM28.61,196.6,1.48,212.27V180.94l27.13-15.67ZM56.79,343.94v31.34L29.66,390.94V361.21a2,2,0,0,0,1.46-1.89,2.09,2.09,0,0,0-.07-.51ZM28.66,361.21v29.73L1.52,375.28V343.94l25.75,14.87a2.09,2.09,0,0,0-.08.51A2,2,0,0,0,28.66,361.21Zm309.47-18.42L311,358.46V327.13l27.13-15.67Zm-56.27-1.59a1.9,1.9,0,0,0-.89.51l-25.75-14.87,26.64-15.38Zm-27.14-47.13V262.73l25.75,14.87a2.09,2.09,0,0,0-.07.51,2,2,0,0,0,1.46,1.89v29.73Zm27.14-17.85a1.9,1.9,0,0,0-.89.51l-25.75-14.86,26.64-15.38Zm-27.64,18.71,27.14,15.67L269,317.72l-14.81,8.55L227.09,310.6l12.33-7.12Zm.5,32.78,25.75,14.87a1.89,1.89,0,0,0,0,1l-25.75,14.87ZM310,261.58l-26.25,15.15a1.9,1.9,0,0,0-.89-.51V245.91L310,230.25ZM170.32,211.25V181.51l27.13,15.67v31.33L171.7,213.65a1.81,1.81,0,0,0,.08-.51A2,2,0,0,0,170.32,211.25Zm0,3.78a2,2,0,0,0,.89-.51L197,229.38l-26.63,15.38ZM198,196.31l-27.13-15.66,13.3-7.69L198,165l27.14,15.67Zm-27.63-47.86,27.13-15.67v31.33l-27.13,15.67ZM142.18,67.23l27.14-15.67V82.89L142.18,98.56Zm-1,64.4-8.88,5.12L114,147.29V116l27.14-15.67ZM113,179.78,99.48,172l-13.57-7.84V132.78l13.57,7.84L113,148.45ZM85.91,100.3,113,116v31.33l-13.56-7.83-13.57-7.83ZM56.77,113.78a2,2,0,0,0-.89.51L29.64,99.14V67.81L56.77,83.47Zm0-95.28V49.83L29.64,34.16V3.85a1.9,1.9,0,0,0,.89-.51ZM29.14,35,56.27,50.7,29.64,66.07h0l-.5.29-.5-.29h0L2,50.7ZM1.5,83.47,28.64,67.81V99.14L1.5,114.81Zm0,33.07,27.14,15.67v31.33L1.5,147.87Zm27.64,14.8L2,115.67l12.33-7.11L29.14,100l26.24,15.15a2.16,2.16,0,0,0-.07.51,2.09,2.09,0,0,0,.07.51Zm28.63-13.78a2,2,0,0,0,.9-.51l26.24,15.16v31.33L57.77,147.87Zm0,63.38,27.14-15.67V196.6L57.77,212.27ZM29.66,231.27a2,2,0,0,0,1.46-1.89,2.09,2.09,0,0,0-.07-.51L56.79,214v31.33L29.66,261Zm27.13,46.55L29.66,293.49V262.16l27.13-15.67ZM28.61,326.54,1.48,342.21V310.88l27.13-15.67Zm1.05-31.9L56.79,279v31.33L29.66,326Zm56.25-32.48L112.15,247a1.9,1.9,0,0,0,.89.51v30.31L85.91,293.49Zm-1,33V326L57.79,310.31V279l27.12,15.65v.59ZM113,212.27,85.91,196.6V165.27l13.57,7.83L113,180.94Zm1-32.49V148.45l15.51-8.95,11.63-6.72v29.73a2,2,0,0,0-1.46,1.89,2.09,2.09,0,0,0,.07.51Zm28.14,16.82V166.29a2,2,0,0,0,.89-.5l26.25,15.15v30.31a2,2,0,0,0-.9.5Zm0,33.07,26.24-15.15a2,2,0,0,0,.9.51v30.3l-.5.29h0L142.18,261Zm0,65L169.32,279v31.33L142.18,326Zm27.14-16.82-27.14,15.67V262.16l27.14-15.67ZM114,342.21V312.12a2,2,0,0,0,1.46-1.89,1.23,1.23,0,0,0,0-.19l25.7-14.83v31.33Zm55.27,32.49L142.14,359V327.7l27.13,15.67ZM197.45,325a1.9,1.9,0,0,0-.89.51l-26.24-15.15V279l27.13,15.66Zm-27.13-47.13V246.49l27.13,15.67v31.33ZM198,261.29l-27.13-15.67L198,230l.5.29h0l26.64,15.38ZM254.22,230l27.14,15.67L254.72,261h0l-.5.29-.5-.29h0l-26.63-15.38ZM226.59,278.4l27.13-15.67v31.34l-27.13,15.66Zm-1,96.89L198.45,391V359.62L225.59,344Zm1-32.49V311.46l27.13,15.67v31.34Zm28.63,16.53L281,344.47a2,2,0,0,0,.89.51v29.73Zm27.64-18.13V311.46L310,327.13v31.33L284.25,343.6a2.24,2.24,0,0,0,.07-.51A2,2,0,0,0,282.86,341.2ZM311,390.94V359.62L338.13,344v31.33ZM366.27,359l-27.14,15.67V343.37l27.14-15.66Zm1-32.49V295.22l27.13,15.67V341.2a2,2,0,0,0-.89.5Z"/></g></svg>